<svg xmlns="http://www.w3.org/2000/svg" width="149.534" height="140.297" viewBox="0 0 149.534 140.297">
  <g id="그룹_1" data-name="그룹 1" transform="translate(-0.534 -5)">
    <path id="다각형_22" data-name="다각형 22" d="M27.025,0,54.051,19.09H0Z" transform="matrix(0.857, 0.515, -0.515, 0.857, 99.158, 96.166)" fill="#660800"/>
    <path id="다각형_20" data-name="다각형 20" d="M12.133,0,24.266,47.138H0Z" transform="translate(147.538 136.6) rotate(159)" fill="#9f1200"/>
    <path id="빼기_18" data-name="빼기 18" d="M-2749.492,103.325h0l-41.3-26.7-29.174-71.907.66-1.011,108.846,70.358L-2721.2,90.537l-2.2-3.515-26.092,16.3Z" transform="translate(2845.603 19.155)" fill="#9f0c00"/>
    <path id="다각형_19" data-name="다각형 19" d="M28.715,0,57.43,123.417H0Z" transform="matrix(0.848, -0.53, 0.53, 0.848, 0.534, 36.81)" fill="#d98780"/>
    <path id="다각형_18" data-name="다각형 18" d="M19.356,0,38.712,131.474H0Z" transform="translate(15.809 39.181) rotate(-62)" fill="#db1100"/>
  </g>
</svg>
