<svg xmlns="http://www.w3.org/2000/svg" width="149.534" height="140.297" viewBox="0 0 149.534 140.297"><g transform="translate(10)"><path d="M27.025,0,54.051,19.09H0Z" transform="matrix(0.857, 0.515, -0.515, 0.857, 88.624, 91.166)" fill="#935b77"/><path d="M12.133,0,24.266,47.138H0Z" transform="translate(137.004 131.6) rotate(159)" fill="#c67ba1"/><g transform="translate(5 -24.703)"><path d="M-2749.492,103.325h0l-41.3-26.7-29.174-71.907.66-1.011,108.846,70.358L-2721.2,90.537l-2.2-3.515-26.092,16.3Z" transform="translate(2830.068 38.859)" fill="#c67ba1"/><path d="M28.715,0,57.43,123.417H0Z" transform="matrix(0.848, -0.53, 0.53, 0.848, -15, 56.513)" fill="#e5c0cf"/><path d="M19.356,0,38.712,131.474H0Z" transform="translate(0.275 58.884) rotate(-62)" fill="#e593bd"/></g></g></svg>